<?xml version="1.0" standalone="no"?>
<!DOCTYPE svg PUBLIC "-//W3C//DTD SVG 20010904//EN"
 "http://www.w3.org/TR/2001/REC-SVG-20010904/DTD/svg10.dtd">
<svg version="1.0" xmlns="http://www.w3.org/2000/svg"
 width="512.000000pt" height="512.000000pt" viewBox="0 0 512.000000 512.000000"
 preserveAspectRatio="xMidYMid meet">

<g transform="translate(0.000000,512.000000) scale(0.100000,-0.100000)"
fill="#000000" stroke="none">
<path d="M2280 4674 c-703 -94 -1316 -537 -1631 -1179 -248 -506 -284 -1080
-103 -1620 34 -103 86 -224 130 -303 19 -34 34 -70 34 -79 0 -9 -63 -250 -140
-536 -77 -286 -139 -522 -137 -524 3 -2 253 55 556 126 l552 131 57 -29 c822
-414 1818 -255 2468 396 315 315 525 723 599 1163 23 132 31 420 16 561 -26
251 -100 502 -212 728 -318 639 -928 1074 -1632 1166 -145 18 -413 18 -557 -1z
m577 -434 c616 -105 1135 -557 1326 -1155 244 -764 -74 -1590 -770 -1998 -161
-95 -355 -165 -558 -203 -152 -29 -471 -26 -615 5 -170 36 -315 89 -482 173
l-157 80 -282 -66 c-155 -37 -284 -65 -286 -62 -3 2 28 126 68 274 l72 270
-61 109 c-171 303 -237 522 -249 823 -12 308 43 564 178 835 83 168 172 289
324 440 398 399 933 569 1492 475z"/>
<path d="M1755 3538 c-80 -23 -207 -182 -248 -313 -18 -57 -22 -93 -21 -190 0
-109 3 -129 33 -215 38 -111 77 -185 175 -330 259 -383 560 -654 877 -792 128
-55 336 -123 439 -144 105 -21 233 -14 316 17 77 29 201 115 241 167 42 55 63
126 70 234 l6 86 -54 31 c-112 64 -424 204 -464 209 l-42 4 -95 -118 c-116
-144 -130 -157 -167 -156 -41 1 -221 88 -327 158 -126 83 -301 260 -392 397
-40 59 -72 119 -72 132 0 14 26 54 66 101 65 78 114 159 114 189 0 16 -157
400 -190 466 -11 21 -31 46 -45 55 -31 20 -165 27 -220 12z"/>
</g>
</svg>
